<?xml version="1.0" encoding="UTF-8" standalone="no"?><svg xmlns:svg="http://www.w3.org/2000/svg" xmlns="http://www.w3.org/2000/svg" version="1.1" style="overflow:visible" viewBox="-150 -150 300 300" height="300px" width="300px"><rect fill-opacity="0" fill="rgb(0,0,0)" height="300" width="300" y="-150" x="-150" /><svg version="1.1" y="-250" x="-250" viewBox="-250 -250 500 500" height="500" width="500" style="overflow:visible"><g style="fill:#ffffff;stroke-linejoin:round"><path style="fill:#c71e1e;fill-opacity:1;stroke:#000000;stroke-width:0;stroke-linecap:round;stroke-linejoin:round;stroke-opacity:0" d="M 124.8,0 A 124.8,124.8 0 0 1 0,124.8 124.8,124.8 0 0 1 -124.8,0 124.8,124.8 0 0 1 0,-124.8 124.8,124.8 0 0 1 124.8,0 Z" /></g></svg><svg version="1.1" y="70" x="-60" viewBox="0 0 500 500" height="500" width="500" style="overflow:visible"><g style="fill:#ffffff;fill-opacity:1;stroke:#000000;stroke-width:0;stroke-linecap:round;stroke-linejoin:round;stroke-opacity:0"><g  aria-label="5"><path  d="m 55.2,2.8 c 27.4,0 51.8,-19 51.8,-52 0,-32.2 -20.8,-47 -45.6,-47 -6.8,0 -12,1.4 -17.8,4.2 l 2.8,-31.4 h 53.8 V -148 H 21 l -4,71.8 13.4,8.8 c 8.6,-5.6 13.4,-7.8 22.2,-7.8 15,0 25,9.6 25,26.8 0,17.4 -10.8,27.2 -26.2,27.2 -13.8,0 -24.2,-6.8 -32.6,-15 L 5.2,-17.4 c 11,11 26.6,20.2 50,20.2 z" /></g></g></svg></svg>