<?xml version="1.0" encoding="UTF-8"?>
<svg version="1.1" xmlns="http://www.w3.org/2000/svg" width="300" height="300">
<path d="M0 0 C1.2257373 0.00563965 2.45147461 0.0112793 3.71435547 0.01708984 C13.18325624 0.14330853 22.10086194 0.84978953 31.25 3.3125 C31.95705078 3.50054199 32.66410156 3.68858398 33.39257812 3.88232422 C64.46795546 12.48623376 91.88531403 32.94071408 108.30859375 60.77734375 C113.54228004 70.16179294 118.04135412 79.75306767 121.125 90.0625 C121.31602295 90.69833008 121.5070459 91.33416016 121.70385742 91.98925781 C130.91473909 125.05653188 125.06362941 159.78719758 108.59765625 189.33984375 C92.13465599 217.81546656 64.32322912 238.07365771 32.84106445 246.76635742 C22.11323171 249.5437287 11.63644133 250.67845303 0.5625 250.625 C-0.66774902 250.61936035 -1.89799805 250.6137207 -3.16552734 250.60791016 C-12.65197176 250.48192319 -21.58399399 249.77975088 -30.75 247.3125 C-31.45705078 247.12445801 -32.16410156 246.93641602 -32.89257812 246.74267578 C-63.96795546 238.13876624 -91.38531403 217.68428592 -107.80859375 189.84765625 C-113.04228004 180.46320706 -117.54135412 170.87193233 -120.625 160.5625 C-120.81602295 159.92666992 -121.0070459 159.29083984 -121.20385742 158.63574219 C-124.23021403 147.77105334 -125.11713797 136.80074958 -125.0625 125.5625 C-125.05686035 124.3367627 -125.0512207 123.11102539 -125.04541016 121.84814453 C-124.91919147 112.37924376 -124.21271047 103.46163806 -121.75 94.3125 C-121.56195801 93.60544922 -121.37391602 92.89839844 -121.18017578 92.16992188 C-112.57626624 61.09454454 -92.12178592 33.67718597 -64.28515625 17.25390625 C-54.90070706 12.02021996 -45.30943233 7.52114588 -35 4.4375 C-34.36416992 4.24647705 -33.72833984 4.0554541 -33.07324219 3.85864258 C-22.20855334 0.83228597 -11.23824958 -0.05463797 0 0 Z " fill="#64E072" transform="translate(149.75,24.6875)"/>
<path d="M0 0 C0 40.92 0 81.84 0 124 C8.91 124 17.82 124 27 124 C27 131.92 27 139.84 27 148 C-2.37 148 -31.74 148 -62 148 C-62 140.08 -62 132.16 -62 124 C-51.44 124 -40.88 124 -30 124 C-30 93.31 -30 62.62 -30 31 C-38.91 31 -47.82 31 -57 31 C-57 24.73 -57 18.46 -57 12 C-54.82664062 11.45472656 -54.82664062 11.45472656 -52.609375 10.8984375 C-50.65537705 10.39399443 -48.70231053 9.88593483 -46.75 9.375 C-45.73091553 9.10864746 -44.71183105 8.84229492 -43.66186523 8.56787109 C-38.32415993 7.11224957 -33.78254372 5.58825615 -29.0625 2.625 C-23 0 -23 0 0 0 Z " fill="#FCFEFC" transform="translate(168,72)"/>
</svg>
