<?xml version="1.0" encoding="UTF-8" standalone="no"?><svg xmlns:svg="http://www.w3.org/2000/svg" xmlns="http://www.w3.org/2000/svg" version="1.1" style="overflow:visible" viewBox="-150 -150 300 300" height="1200px" width="1200px"><rect fill-opacity="0" fill="rgb(0,0,0)" height="300" width="300" y="-150" x="-150" /><svg version="1.1" y="-250" x="-250" viewBox="-250 -250 500 500" height="500" width="500" style="overflow:visible"><g style="fill:#ffffff;stroke-linejoin:round"><path style="fill:#64dee0;fill-opacity:1;stroke:#000000;stroke-width:0;stroke-linecap:round;stroke-linejoin:round;stroke-opacity:0" d="M 124.8,0 A 124.8,124.8 0 0 1 0,124.8 124.8,124.8 0 0 1 -124.8,0 124.8,124.8 0 0 1 0,-124.8 124.8,124.8 0 0 1 124.8,0 Z" /></g></svg><svg version="1.1" y="70" x="-60" viewBox="0 0 500 500" height="500" width="500" style="overflow:visible"><g style="fill:#ffffff;fill-opacity:1;stroke:#000000;stroke-width:0;stroke-linecap:round;stroke-linejoin:round;stroke-opacity:0"><g  aria-label="2"><path  d="m 8.6,0 h 99.2 V -24.8 H 75.6 c -6.8,0 -16.6,0.8 -24,1.6 27,-26.4 49.2,-55.2 49.2,-82 0,-27.6 -18.6,-45.6 -46.6,-45.6 -20.2,0 -33.4,8 -47,22.4 l 16,16 c 7.4,-8.2 16.4,-15.2 27.2,-15.2 14,0 22.2,9 22.2,24 0,22.8 -23.8,50.6 -64,86.6 z" /></g></g></svg></svg>