<?xml version="1.0" encoding="UTF-8"?>
<svg version="1.1" xmlns="http://www.w3.org/2000/svg" width="1200" height="1203">
<path d="M0 0 C2.05492481 0.00564815 4.10984134 0.00846364 6.16477203 0.0110817 C26.10518588 0.04800498 45.74772526 0.51794678 65.52213287 3.31805801 C66.78267487 3.48434708 68.04321686 3.65063614 69.34195709 3.82196426 C100.80756194 8.01479008 131.41533887 15.2761858 161.52213287 25.31805801 C162.44477936 25.62066544 163.36742584 25.92327286 164.31803131 26.2350502 C187.16266045 33.75277619 209.01976829 43.59693165 230.52213287 54.31805801 C231.90876129 55.00835098 231.90876129 55.00835098 233.3234024 55.71258926 C246.86682177 62.50509733 259.78035647 70.12671553 272.52213287 78.31805801 C273.11816315 78.70058731 273.71419342 79.08311661 274.32828522 79.4772377 C277.76819295 81.69824702 281.15350367 83.99064147 284.52213287 86.31805801 C285.15538483 86.75440567 285.78863678 87.19075333 286.44107819 87.64032364 C303.87638072 99.68771828 320.35028439 112.76994485 336.01041412 127.05243301 C337.37696147 128.28508847 338.74977027 129.51146627 340.15225983 130.70306778 C346.20182906 135.86852365 351.81228081 141.45628026 357.42227936 147.0878334 C359.08140607 148.75232079 360.74581339 150.41139248 362.41080475 152.07001114 C367.99140152 157.64675193 373.42726359 163.2889197 378.52213287 169.31805801 C379.5064195 170.4481768 380.49206672 171.57711221 381.47916412 172.70477676 C401.45560352 195.72987091 419.29765286 220.90962237 434.52213287 247.31805801 C435.08118317 248.2817128 435.08118317 248.2817128 435.6515274 249.26483536 C473.90382013 315.53972022 495.83647878 389.08272395 501.52213287 465.31805801 C501.59270905 466.24924454 501.66328522 467.18043106 501.73600006 468.13983536 C508.20709113 558.06745814 487.89568758 650.42205258 433.52213287 753.31805801 C433.0385733 754.13919083 432.55501373 754.96032364 432.05680084 755.80633926 C419.27037275 777.39530663 404.73686046 798.16044393 388.52213287 817.31805801 C387.66474622 818.34879607 386.80800783 819.38007362 385.95182037 820.41180801 C375.73867472 832.66656532 364.81824902 844.19353344 353.52066803 855.44989395 C351.75564744 857.20949281 349.99612154 858.97446198 348.23697662 860.73993301 C342.50133469 866.47919657 336.73221257 872.08727409 330.52213287 877.31805801 C329.55791412 878.16368301 328.59369537 879.00930801 327.60025787 879.88055801 C300.91678847 902.87846535 271.2943658 922.28764575 240.52213287 939.31805801 C239.71147369 939.77003555 238.90081451 940.22201309 238.0655899 940.68768692 C166.89995789 980.1058196 84.34610599 999.02164816 -134.35726166 980.52215958 C-174.74454531 968.83885556 -213.18737832 952.57299978 -249.47786713 931.31805801 C-250.36667572 930.80066055 -251.25548431 930.28326309 -252.1712265 929.75018692 C-274.44726788 916.75032511 -295.77844114 901.99136736 -315.47786713 885.31805801 C-316.50860518 884.46067136 -317.53988273 883.60393297 -318.57161713 882.74774551 C-330.82637443 872.53459986 -342.35334255 861.61417416 -353.60970306 850.31659317 C-355.36930192 848.55157258 -357.1342711 846.79204668 -358.89974213 845.03290176 C-364.63900568 839.29725983 -370.2470832 833.52813771 -375.47786713 827.31805801 C-376.32349213 826.35383926 -377.16911713 825.38962051 -378.04036713 824.39618301 C-401.04214048 797.70822803 -420.4295881 768.08552197 -437.47786713 737.31805801 C-438.12320404 736.15935196 -438.12320404 736.15935196 -438.78157806 734.9772377 C-484.27605044 652.76045117 -502.72299491 556.05647775 -478.29817963 361.14374161 C-472.07274355 339.62854265 -464.37797493 318.86124857 -455.47786713 298.31805801 C-454.99817474 297.20833633 -454.51848236 296.09861465 -454.02425385 294.95526505 C-447.63074391 280.29833947 -440.40884198 266.19911646 -432.47786713 252.31805801 C-431.94371185 251.38155411 -431.40955658 250.4450502 -430.85921478 249.48016739 C-424.33198537 238.09776555 -417.54128622 226.99060813 -409.90657806 216.31610489 C-408.38132755 214.18304778 -406.87118314 212.03970369 -405.36067963 209.89618301 C-398.12970317 199.69750467 -390.51097563 189.89580435 -382.47786713 180.31805801 C-381.96868744 179.70978165 -381.45950775 179.10150528 -380.93489838 178.4747963 C-370.09242806 165.566264 -358.62630727 153.37773586 -346.72786713 141.44305801 C-346.23209167 140.94460373 -345.73631622 140.44614944 -345.22551727 139.93259048 C-339.49000991 134.17359396 -333.67273842 128.58361382 -327.47786713 123.31805801 C-326.39455307 122.36899946 -325.31247178 121.41853145 -324.23177338 120.46649551 C-263.40741158 67.40956272 -188.916329 30.57395249 -110.47786713 12.31805801 C-108.93244232 11.95357559 -108.93244232 11.95357559 -107.35579681 11.58172989 C-94.82696573 8.66843429 -82.19073984 6.54610827 -69.47786713 4.63055801 C-68.80685974 4.5276445 -68.13585236 4.42473099 -67.44451141 4.31869888 C-45.02147623 0.91295124 -22.66386516 -0.06330737 0 0 Z " fill="#64DEE0" transform="translate(597.4778671264648,103.68194198608398)"/>
<path d="M0 0 C1.10142334 0.01087646 1.10142334 0.01087646 2.22509766 0.02197266 C21.05520244 0.31410418 41.44493955 4.23239699 59 11 C59.9070166 11.34691895 60.8140332 11.69383789 61.74853516 12.05126953 C74.51681421 17.00215064 86.62679569 22.33849414 98 30 C99.41539062 30.94939453 99.41539062 30.94939453 100.859375 31.91796875 C134.8879727 55.7674917 158.12690552 90.38582547 167.50488281 130.87060547 C167.94754898 132.77441922 168.42095892 134.67102388 168.8984375 136.56640625 C185.54425353 206.36346655 158.17490158 278.36746916 122.125 337.25 C111.01080239 355.1321739 98.86407474 372.33662019 86 389 C85.54850586 389.58507324 85.09701172 390.17014648 84.63183594 390.77294922 C71.34785456 407.9294356 57.58725926 424.71086457 43.00390625 440.78125 C41.18688018 442.79308393 39.40055608 444.82660434 37.625 446.875 C33.37728988 451.74480039 29.00220417 456.49667865 24.61958313 461.2447052 C23.56951103 462.38276725 22.52021718 463.52154806 21.47184753 464.66117859 C12.10081695 474.83838528 2.43713195 484.68657838 -7.375 494.4375 C-8.80492593 495.86239098 -10.23461448 497.28752021 -11.6640625 498.71289062 C-15.10666062 502.14466392 -18.55239914 505.57325286 -22 509 C-9.3808723 508.39796789 -9.3808723 508.39796789 3.20266628 507.31556892 C30.04966983 504.43649221 56.86303379 503.69907253 83.83729291 503.79721212 C87.98111567 503.81003032 92.12494404 503.81091369 96.26878357 503.81326294 C104.05568379 503.81938912 111.84252538 503.8356748 119.62940019 503.85596192 C130.19423232 503.88286725 140.75908139 503.89336548 151.32393932 503.90496635 C167.88266982 503.92356598 184.44127682 503.96346893 201 504 C201 536.67 201 569.34 201 603 C69.99 603 -61.02 603 -196 603 C-196 580.56 -196 558.12 -196 535 C-180 520 -180 520 -172 513 C-164.80334519 506.50641052 -157.71939573 499.88950655 -150.64282227 493.265625 C-147.64600906 490.46201882 -144.64340872 487.66604292 -141.61328125 484.8984375 C-135.47312778 479.28725926 -129.47568025 473.57941546 -123.66357422 467.62670898 C-120.95831221 464.87507862 -118.18859945 462.26802287 -115.25927734 459.75488281 C-111.24318589 456.25606373 -107.44266768 452.58785619 -103.68359375 448.81640625 C-102.6933596 447.82760719 -102.6933596 447.82760719 -101.68312073 446.8188324 C-100.29964494 445.43603165 -98.91740917 444.05198924 -97.53637695 442.66674805 C-95.44268331 440.56769657 -93.34370126 438.4740406 -91.24414062 436.38085938 C-89.89030429 435.02636214 -88.53677825 433.67155469 -87.18359375 432.31640625 C-86.56673203 431.70156876 -85.9498703 431.08673126 -85.3143158 430.45326233 C-81.56938351 426.68846673 -78.01577845 422.80569032 -74.55641174 418.77659607 C-72.31834434 416.22191105 -69.93028132 413.87309823 -67.5 411.5 C-63.81511037 407.86440864 -60.29264096 404.15387033 -56.93359375 400.21484375 C-54.900956 397.8865496 -52.80584597 395.62823267 -50.69628906 393.36987305 C-45.62795315 387.94322563 -40.79995406 382.4105926 -36.1484375 376.6171875 C-33.98488228 373.98158387 -31.7361044 371.45576625 -29.4375 368.9375 C-25.06436675 364.12104224 -21.00415392 359.12531702 -17 354 C-15.94802192 352.66658362 -14.89592914 351.33325773 -13.84375 350 C4.06562802 327.23054995 20.45209381 303.65198579 34 278 C34.35255859 277.33871094 34.70511719 276.67742187 35.06835938 275.99609375 C49.18593392 249.35016507 59.22330007 220.51454706 59.25 190.1875 C59.25067474 189.49947296 59.25134949 188.81144592 59.25204468 188.10256958 C59.21262555 162.74722788 54.39801489 138.51086679 37 119 C36.37222656 118.28972656 35.74445313 117.57945312 35.09765625 116.84765625 C21.14638709 101.9834206 0.63643327 94.39623386 -19.44140625 93.6875 C-51.59205997 93.13118011 -77.55928837 102.29061264 -103 122 C-103.91652344 122.70511719 -104.83304687 123.41023438 -105.77734375 124.13671875 C-116.56787047 132.70892867 -127.38166241 142.20192722 -136 153 C-140.17615799 151.36256066 -142.9648153 148.30218208 -146.05371094 145.17333984 C-146.64926285 144.57807999 -147.24481476 143.98282013 -147.8584137 143.36952209 C-149.82184643 141.40469823 -151.77810373 139.43288961 -153.734375 137.4609375 C-155.0958564 136.09572521 -156.45778061 134.73095439 -157.82012939 133.36660767 C-161.40183824 129.77726841 -164.9774999 126.1819632 -168.55194092 122.58538818 C-172.20157121 118.91528681 -175.85688092 115.25085171 -179.51171875 111.5859375 C-186.68005329 104.39616348 -193.842013 97.20007484 -201 90 C-200.04957108 88.88450722 -199.09818814 87.76982723 -198.14640808 86.65548706 C-197.61671008 86.03466185 -197.08701208 85.41383663 -196.54126263 84.77419853 C-193.00191281 80.69993556 -189.12854749 76.93747407 -185.3125 73.125 C-184.42054932 72.23385498 -183.52859863 71.34270996 -182.60961914 70.42456055 C-176.66096658 64.5311838 -170.63988066 59.10346814 -164 54 C-162.26926912 52.5435234 -160.54016784 51.08510866 -158.8125 49.625 C-129.25648784 25.57165865 -94.52969591 9.47063723 -57 3 C-55.94039062 2.80664062 -54.88078125 2.61328125 -53.7890625 2.4140625 C-36.03210262 -0.61119733 -17.94993207 -0.25139961 0 0 Z " fill="#FEFEFE" transform="translate(590,280)"/>
</svg>
