<?xml version="1.0" encoding="UTF-8"?>
<svg version="1.1" xmlns="http://www.w3.org/2000/svg" width="265" height="281">
<path d="M0 0 C87.45 0 174.9 0 265 0 C265 92.73 265 185.46 265 281 C177.55 281 90.1 281 0 281 C0 188.27 0 95.54 0 0 Z " fill="#64DF72" transform="translate(0,0)"/>
<path d="M0 0 C87.45 0 174.9 0 265 0 C265 92.73 265 185.46 265 281 C177.55 281 90.1 281 0 281 C0 188.27 0 95.54 0 0 Z M41.59375 66.625 C28.58899472 82.31327621 19.68473993 100.20824024 15 120 C14.81381104 120.78197754 14.62762207 121.56395508 14.43579102 122.36962891 C12.65758804 130.82186643 12.55894228 139.27702005 12.5625 147.875 C12.56176483 148.64801453 12.56102966 149.42102905 12.56027222 150.21746826 C12.59221947 163.02980566 13.7242225 174.82782697 18 187 C18.26232422 187.75361816 18.52464844 188.50723633 18.79492188 189.28369141 C24.11621989 204.09591365 31.57343481 217.15570908 42 229 C42.69738281 229.83015625 43.39476563 230.6603125 44.11328125 231.515625 C57.2487978 246.78836453 73.47884159 257.29258225 92 265 C92.59570801 265.2489502 93.19141602 265.49790039 93.80517578 265.75439453 C99.09839929 267.86452197 104.411251 269.06652481 110 270.125 C110.85078125 270.29386719 111.7015625 270.46273437 112.578125 270.63671875 C146.49497457 277.24322166 179.70634903 269.79648538 208.41015625 250.84765625 C215.82236437 245.55961034 222.87357389 239.75015727 229 233 C229.67289063 232.25878906 230.34578125 231.51757812 231.0390625 230.75390625 C253.85545918 204.26914898 264.52952605 170.80627847 262 136 C258.00144812 101.8585186 241.23844792 71.06435996 214.4140625 49.5078125 C197.98429682 37.158514 180.06566877 29.15511768 160 25 C158.93652344 24.77441406 157.87304688 24.54882812 156.77734375 24.31640625 C113.33967278 16.35374849 70.69903745 34.87377733 41.59375 66.625 Z " fill="#FDFEFD" transform="translate(0,0)"/>
<path d="M0 0 C0 40.92 0 81.84 0 124 C9.24 124 18.48 124 28 124 C28 131.92 28 139.84 28 148 C-1.7 148 -31.4 148 -62 148 C-62 140.08 -62 132.16 -62 124 C-51.44 124 -40.88 124 -30 124 C-30 93.31 -30 62.62 -30 31 C-38.91 31 -47.82 31 -57 31 C-57 24.73 -57 18.46 -57 12 C-54.751875 11.4225 -52.50375 10.845 -50.1875 10.25 C-11.3616145 0 -11.3616145 0 0 0 Z " fill="#FCFEFD" transform="translate(155,70)"/>
<path d="M0 0 C0.33 0 0.66 0 1 0 C1 40.92 1 81.84 1 124 C10.24 124 19.48 124 29 124 C29 131.92 29 139.84 29 148 C-0.7 148 -30.4 148 -61 148 C-61 140.08 -61 132.16 -61 124 C-50.44 124 -39.88 124 -29 124 C-29 124.33 -29 124.66 -29 125 C-38.57 125.33 -48.14 125.66 -58 126 C-58 132.6 -58 139.2 -58 146 C-29.95 146.33 -1.9 146.66 27 147 C27 139.74 27 132.48 27 125 C18.09 125 9.18 125 0 125 C0 83.75 0 42.5 0 0 Z " fill="#C9F6CF" transform="translate(154,70)"/>
<path d="M0 0 C1.65 0 3.3 0 5 0 C4.01 0.33 3.02 0.66 2 1 C2 6.28 2 11.56 2 17 C3.78148438 16.98839844 5.56296875 16.97679688 7.3984375 16.96484375 C9.72395729 16.95546665 12.04947821 16.94636637 14.375 16.9375 C16.1384375 16.92493164 16.1384375 16.92493164 17.9375 16.91210938 C19.61972656 16.90727539 19.61972656 16.90727539 21.3359375 16.90234375 C22.89127197 16.89448853 22.89127197 16.89448853 24.47802734 16.88647461 C27 17 27 17 29 18 C29 49.02 29 80.04 29 112 C28.34 112 27.68 112 27 112 C27 81.31 27 50.62 27 19 C18.09 19 9.18 19 0 19 C0 12.73 0 6.46 0 0 Z " fill="#DCFEE2" transform="translate(98,82)"/>
<path d="M0 0 C0.66 0.66 1.32 1.32 2 2 C1.18208984 2.51046875 1.18208984 2.51046875 0.34765625 3.03125 C-7.77140598 8.24965581 -14.85386909 13.72943246 -20 22 C-22.625 24.875 -22.625 24.875 -25 27 C-25.66 27 -26.32 27 -27 27 C-27.268125 28.093125 -27.53625 29.18625 -27.8125 30.3125 C-29.36505032 35.13357731 -29.36505032 35.13357731 -32 37 C-32.66 37 -33.32 37 -34 37 C-34.103125 37.53625 -34.20625 38.0725 -34.3125 38.625 C-35.18092697 41.62502044 -36.55620296 44.2379535 -38 47 C-38.66 47 -39.32 47 -40 47 C-38.55616644 41.73041539 -36.15159324 37.79601396 -33.0625 33.375 C-32.57595947 32.6749585 -32.08941895 31.97491699 -31.58813477 31.25366211 C-23.10751464 19.29458271 -12.6199056 7.63836392 0 0 Z " fill="#80D689" transform="translate(66,45)"/>
<path d="M0 0 C2.42357096 6.99786052 -2.76745844 14.67180427 -5.79003906 20.93115234 C-10.57138949 30.60573772 -15.78417526 39.90952984 -23 48 C-23 44.13304322 -21.58090029 41.4911548 -20 38 C-19.01 38 -18.02 38 -17 38 C-16.67 36.35 -16.34 34.7 -16 33 C-15.34 33 -14.68 33 -14 33 C-13.82984375 32.32453125 -13.6596875 31.6490625 -13.484375 30.953125 C-12.07892002 25.77985455 -11.0336571 22.65550174 -7 19 C-5.17195251 15.34390502 -3.88841255 11.77094992 -2.9375 7.8125 C-2.20668469 4.84051774 -1.52162765 2.60850455 0 0 Z " fill="#7CD788" transform="translate(256,180)"/>
<path d="M0 0 C19.01984543 2.39970012 41.90068593 16.37054198 53.85546875 31.3203125 C54.23316406 31.87460937 54.61085937 32.42890625 55 33 C50.32307692 31.52307692 50.32307692 31.52307692 48.6875 28.875 C48.460625 28.25625 48.23375 27.6375 48 27 C47.01 27 46.02 27 45 27 C45 26.34 45 25.68 45 25 C44.34 25 43.68 25 43 25 C42.43925781 24.4328125 41.87851563 23.865625 41.30078125 23.28125 C38.53811525 20.54203617 35.4647802 18.55399593 32.1875 16.5 C31.59646484 16.12230469 31.00542969 15.74460937 30.39648438 15.35546875 C24.25873987 11.45997551 18.22647623 7.90955565 11.375 5.375 C10.28960937 4.97023438 9.20421875 4.56546875 8.0859375 4.1484375 C7.06757813 3.76945312 6.04921875 3.39046875 5 3 C3.33117063 2.33876572 1.66366427 1.67412418 0 1 C0 0.67 0 0.34 0 0 Z " fill="#7BD486" transform="translate(172,29)"/>
<path d="M0 0 C1.69923431 3.17847846 2.87555454 6.39084761 4 9.8125 C4.52787109 11.41158203 4.52787109 11.41158203 5.06640625 13.04296875 C5.75313089 15.21807566 6.36639216 17.41671636 6.9375 19.625 C8.17796366 23.56529634 9.9460915 27.0260181 11.87890625 30.66796875 C12.9012986 32.79468734 13.52883198 34.69710012 14 37 C14.66 37 15.32 37 16 37 C16.48919922 38.01320313 16.48919922 38.01320313 16.98828125 39.046875 C17.42527344 39.93890625 17.86226562 40.8309375 18.3125 41.75 C18.74175781 42.63171875 19.17101562 43.5134375 19.61328125 44.421875 C20.90103146 46.81600215 22.30915754 48.87776958 24 51 C23.67 51.66 23.34 52.32 23 53 C11.93185401 39.50021588 -0.57811773 18.05012026 0 0 Z " fill="#7ED588" transform="translate(15,171)"/>
<path d="M0 0 C0.33 0 0.66 0 1 0 C4.8806236 16.73518926 4.52352505 36.40494939 0 53 C-0.66 53.99 -1.32 54.98 -2 56 C-1.93941406 55.40501709 -1.87882812 54.81003418 -1.81640625 54.19702148 C-0.03060342 36.0797084 0.23562015 18.18081357 0 0 Z " fill="#85D88F" transform="translate(259,124)"/>
<path d="M0 0 C1.65 0 3.3 0 5 0 C4.01 0.33 3.02 0.66 2 1 C2 6.28 2 11.56 2 17 C10.25 17 18.5 17 27 17 C27 17.66 27 18.32 27 19 C18.09 19 9.18 19 0 19 C0 12.73 0 6.46 0 0 Z " fill="#CBF7D1" transform="translate(98,82)"/>
<path d="M0 0 C1.69501381 1.64364975 3.35384941 3.30800725 5 5 C5.51949219 5.52335937 6.03898438 6.04671875 6.57421875 6.5859375 C10.68692411 10.9766579 13.84748685 15.74001761 16.9375 20.875 C17.33936523 21.54192871 17.74123047 22.20885742 18.15527344 22.89599609 C21 27.73500224 21 27.73500224 21 30 C20.34 30 19.68 30 19 30 C18.67 29.01 18.34 28.02 18 27 C17.360625 26.566875 16.72125 26.13375 16.0625 25.6875 C14 24 14 24 13.11328125 21.2421875 C11.90913137 17.73536504 10.35043685 15.38935303 8.125 12.4375 C7.44695312 11.52871094 6.76890625 10.61992188 6.0703125 9.68359375 C4.66150096 7.85745502 3.21695847 6.05845352 1.7421875 4.28515625 C0 2 0 2 0 0 Z " fill="#7FD689" transform="translate(227,62)"/>
<path d="M0 0 C-6.34791872 3.98972861 -12.7099592 6.77235897 -19.875 8.875 C-20.96252563 9.19730591 -20.96252563 9.19730591 -22.07202148 9.52612305 C-25.79162181 10.56923116 -29.13265342 11.25782311 -33 11 C-29.47514028 7.79558207 -25.58701342 6.90611062 -21.0625 5.875 C-20.35931641 5.70613281 -19.65613281 5.53726563 -18.93164062 5.36328125 C-15.30219307 4.49928905 -11.66401839 3.70268846 -8 3 C-8 2.34 -8 1.68 -8 1 C-3.375 -1.125 -3.375 -1.125 0 0 Z " fill="#7FD78A" transform="translate(131,71)"/>
<path d="M0 0 C0.33 0 0.66 0 1 0 C1.125 3.375 1.125 3.375 1 7 C0.34 7.66 -0.32 8.32 -1 9 C-1.6837613 11.88717605 -1.6837613 11.88717605 -2.125 15.125 C-2.29257812 16.22070312 -2.46015625 17.31640625 -2.6328125 18.4453125 C-2.81457031 19.70988281 -2.81457031 19.70988281 -3 21 C-3.99 21.33 -4.98 21.66 -6 22 C-6.33 23.98 -6.66 25.96 -7 28 C-8.41615643 23.51820091 -7.11035775 20.03538375 -5.75 15.6875 C-5.53214844 14.95337891 -5.31429688 14.21925781 -5.08984375 13.46289062 C-3.68141616 8.82166872 -1.98696514 4.42391945 0 0 Z " fill="#7DD786" transform="translate(23,96)"/>
<path d="M0 0 C0.66 0.33 1.32 0.66 2 1 C-9.98227183 14.3906763 -9.98227183 14.3906763 -16 19 C-16.66 19 -17.32 19 -18 19 C-17.25 17.0625 -17.25 17.0625 -16 15 C-13.875 14.25 -13.875 14.25 -12 14 C-12 13.34 -12 12.68 -12 12 C-11.34 12 -10.68 12 -10 12 C-10 11.01 -10 10.02 -10 9 C-9.071875 8.87625 -9.071875 8.87625 -8.125 8.75 C-5.81562433 8.18741541 -5.81562433 8.18741541 -4.75 5.9375 C-4.37875 4.9784375 -4.37875 4.9784375 -4 4 C-3.34 4 -2.68 4 -2 4 C-1.34 2.68 -0.68 1.36 0 0 Z " fill="#80D58A" transform="translate(230,228)"/>
<path d="M0 0 C10.35265153 1.55472682 20.67680372 3.26208817 31 5 C31 5.33 31 5.66 31 6 C14.17344487 6.55744416 14.17344487 6.55744416 6 3 C4.824375 2.608125 3.64875 2.21625 2.4375 1.8125 C1.633125 1.544375 0.82875 1.27625 0 1 C0 0.67 0 0.34 0 0 Z " fill="#D9FBDE" transform="translate(97,267)"/>
<path d="M0 0 C0.9435441 2.53899138 1.16906025 3.60909275 0.07421875 6.140625 C-0.61220703 7.18476563 -0.61220703 7.18476563 -1.3125 8.25 C-1.76238281 8.95640625 -2.21226562 9.6628125 -2.67578125 10.390625 C-3.11277344 10.92171875 -3.54976562 11.4528125 -4 12 C-4.66 12 -5.32 12 -6 12 C-6.2475 12.721875 -6.495 13.44375 -6.75 14.1875 C-8.10983674 17.24713266 -9.82917754 19.4673738 -12 22 C-12.66 21.67 -13.32 21.34 -14 21 C-13.6596875 20.57332031 -13.319375 20.14664063 -12.96875 19.70703125 C-8.1194199 13.45191131 -4.06883305 6.77450376 0 0 Z " fill="#DCFCDF" transform="translate(247,206)"/>
<path d="M0 0 C2.09721098 3.14581646 3.05667086 5.8408918 4.1875 9.4375 C4.55230469 10.57058594 4.91710937 11.70367187 5.29296875 12.87109375 C5.96248932 15.8339997 6.07236414 17.22004965 5 20 C-0.74031891 6.3667426 -0.74031891 6.3667426 0 0 Z " fill="#80D78B" transform="translate(253,103)"/>
<path d="M0 0 C1.98 0 3.96 0 6 0 C2.72026028 2.80429833 -0.45392905 3.9973299 -4.5625 5.25 C-5.69816406 5.60578125 -6.83382812 5.9615625 -8.00390625 6.328125 C-11 7 -11 7 -14 6 C-12.0429132 5.32968281 -10.08428887 4.66385317 -8.125 4 C-7.03445312 3.62875 -5.94390625 3.2575 -4.8203125 2.875 C-2 2 -2 2 0 2 C0 1.34 0 0.68 0 0 Z " fill="#80D58A" transform="translate(180,262)"/>
<path d="M0 0 C5.2905277 -0.66131596 8.15696618 0.95446148 12.4609375 3.7109375 C12.96882813 4.13632812 13.47671875 4.56171875 14 5 C14 5.66 14 6.32 14 7 C9.0276578 5.50829734 4.58154261 3.39542583 0 1 C0 0.67 0 0.34 0 0 Z " fill="#7FD989" transform="translate(77,257)"/>
<path d="M0 0 C0.33 0 0.66 0 1 0 C1.02692484 2.29160319 1.04636124 4.58329546 1.0625 6.875 C1.07410156 8.15117187 1.08570313 9.42734375 1.09765625 10.7421875 C1 14 1 14 0 16 C-0.66 16 -1.32 16 -2 16 C-2.33 16.99 -2.66 17.98 -3 19 C-2.13329546 12.64416673 -1.06965872 6.32448699 0 0 Z " fill="#DEFDE4" transform="translate(260,165)"/>
<path d="M0 0 C-0.33 0.99 -0.66 1.98 -1 3 C-3.30657014 3.75407101 -5.645752 4.411438 -8 5 C-8.86625 5.37125 -9.7325 5.7425 -10.625 6.125 C-13.23365729 7.08608427 -15.24237071 7.15757882 -18 7 C-14.87351251 4.91567501 -11.94269132 3.71441389 -8.4375 2.375 C-7.28121094 1.92898437 -6.12492187 1.48296875 -4.93359375 1.0234375 C-2 0 -2 0 0 0 Z " fill="#7BD786" transform="translate(103,28)"/>
<path d="M0 0 C6.55925943 0.38979206 11.94526627 1.42113193 18 4 C11.97129543 5.927545 5.58894016 3.52403749 0 1 C0 0.67 0 0.34 0 0 Z " fill="#83D68A" transform="translate(92,264)"/>
<path d="M0 0 C1.62374052 4.83830789 -0.13115814 8.45329382 -2 13 C-3.6875 16.0625 -3.6875 16.0625 -5 18 C-6 16 -6 16 -5.0390625 13.06640625 C-4.57242188 11.91011719 -4.10578125 10.75382813 -3.625 9.5625 C-3.16351563 8.40878906 -2.70203125 7.25507813 -2.2265625 6.06640625 C-1.82179687 5.05449219 -1.41703125 4.04257813 -1 3 C-0.67 2.01 -0.34 1.02 0 0 Z " fill="#DCFDE0" transform="translate(256,184)"/>
<path d="M0 0 C0.33 0.99 0.66 1.98 1 3 C0.01 3.33 -0.98 3.66 -2 4 C-2.12375 4.78375 -2.2475 5.5675 -2.375 6.375 C-3 9 -3 9 -5 11 C-5.99 10.34 -6.98 9.68 -8 9 C-5.36 6.03 -2.72 3.06 0 0 Z " fill="#E1FBE6" transform="translate(232,228)"/>
<path d="M0 0 C5.00918744 1.47329042 7.51807722 4.27515238 11 8 C10.67 8.66 10.34 9.32 10 10 C8.33037631 8.52417192 6.6643694 7.04425109 5 5.5625 C4.071875 4.73878906 3.14375 3.91507813 2.1875 3.06640625 C1.465625 2.38449219 0.74375 1.70257813 0 1 C0 0.67 0 0.34 0 0 Z " fill="#81D68D" transform="translate(47,234)"/>
<path d="M0 0 C0.99 0.33 1.98 0.66 3 1 C-0.3 3.64 -3.6 6.28 -7 9 C-7.33 8.34 -7.66 7.68 -8 7 C-7.34 7 -6.68 7 -6 7 C-5.7525 6.401875 -5.505 5.80375 -5.25 5.1875 C-3.80517427 2.65905497 -2.51719455 1.44929383 0 0 Z " fill="#E0FBE2" transform="translate(60,47)"/>
<path d="M0 0 C0.66 0.33 1.32 0.66 2 1 C-3.09090909 6.27272727 -3.09090909 6.27272727 -6 8 C-7.32 7.67 -8.64 7.34 -10 7 C-6.7 4.69 -3.4 2.38 0 0 Z " fill="#DEFCE1" transform="translate(209,249)"/>
<path d="M0 0 C2.74277578 3.19990508 4.6302836 6.00499382 6 10 C3.13367003 8.94901234 2.16993357 8.33137046 0.75 5.5625 C0 3 0 3 0 0 Z " fill="#E1FCE2" transform="translate(27,208)"/>
<path d="M0 0 C3.82792868 1.5595265 6.36359864 3.83631836 9 7 C8.63671875 9.1640625 8.63671875 9.1640625 8 11 C6.66375099 9.35653302 5.33107149 7.71016314 4 6.0625 C3.2575 5.14597656 2.515 4.22945313 1.75 3.28515625 C0 1 0 1 0 0 Z " fill="#E0FDE1" transform="translate(229,63)"/>
<path d="M0 0 C0.66 0.33 1.32 0.66 2 1 C-0.64 3.64 -3.28 6.28 -6 9 C-6.33 8.01 -6.66 7.02 -7 6 C-4.74259377 3.66475218 -2.7194239 1.81294927 0 0 Z " fill="#E5FEE8" transform="translate(50,56)"/>
<path d="M0 0 C-1.55500981 3.81684226 -4.03595495 6.19195732 -7 9 C-4.4 0 -4.4 0 0 0 Z " fill="#7FD58D" transform="translate(239,219)"/>
<path d="M0 0 C-0.33 0.99 -0.66 1.98 -1 3 C-4.3 3.33 -7.6 3.66 -11 4 C-7.61125486 1.74083657 -4.15175481 0 0 0 Z " fill="#E1FDE3" transform="translate(184,264)"/>
<path d="M0 0 C0.6875 1.625 0.6875 1.625 1 4 C-0.4375 7.25 -0.4375 7.25 -2 10 C-2.6875 8.375 -2.6875 8.375 -3 6 C-1.5625 2.75 -1.5625 2.75 0 0 Z " fill="#7CD485" transform="translate(256,180)"/>
<path d="M0 0 C2.475 0.99 2.475 0.99 5 2 C5 2.66 5 3.32 5 4 C5.99 4.33 6.98 4.66 8 5 C7.67 5.99 7.34 6.98 7 8 C5.83035398 6.8572081 4.66435444 5.71068285 3.5 4.5625 C2.8503125 3.92441406 2.200625 3.28632812 1.53125 2.62890625 C0 1 0 1 0 0 Z " fill="#E3FEE4" transform="translate(221,55)"/>
<path d="M0 0 C1.14926266 0.95421808 2.29430541 1.91352045 3.4375 2.875 C4.07558594 3.40867188 4.71367187 3.94234375 5.37109375 4.4921875 C7 6 7 6 8 8 C4.11137013 6.73882275 2.10624401 5.54735833 0 2 C0 1.34 0 0.68 0 0 Z " fill="#86D68E" transform="translate(219,54)"/>
<path d="M0 0 C2.375 -0.125 2.375 -0.125 5 0 C5.66 0.66 6.32 1.32 7 2 C6.67 2.99 6.34 3.98 6 5 C3.98079663 3.69593116 1.98075027 2.36176581 0 1 C0 0.67 0 0.34 0 0 Z " fill="#DCFBE2" transform="translate(205,43)"/>
<path d="M0 0 C0.66 0.33 1.32 0.66 2 1 C0.8125 3 0.8125 3 -1 5 C-3.6875 5.25 -3.6875 5.25 -6 5 C-5.195625 4.360625 -4.39125 3.72125 -3.5625 3.0625 C-1.7249496 1.59396498 -1.7249496 1.59396498 0 0 Z " fill="#82DA8D" transform="translate(73,40)"/>
<path d="M0 0 C2.64 0 5.28 0 8 0 C8.33 1.32 8.66 2.64 9 4 C6.03 3.01 3.06 2.02 0 1 C0 0.67 0 0.34 0 0 Z " fill="#DEFCE1" transform="translate(188,34)"/>
</svg>
