<?xml version="1.0" encoding="UTF-8" standalone="no"?><svg xmlns:svg="http://www.w3.org/2000/svg" xmlns="http://www.w3.org/2000/svg" version="1.1" style="overflow:visible" viewBox="-150 -150 300 300" height="300px" width="300px"><rect fill-opacity="0" fill="rgb(0,0,0)" height="300" width="300" y="-150" x="-150" /><svg version="1.1" y="-250" x="-250" viewBox="-250 -250 500 500" height="500" width="500" style="overflow:visible"><g style="fill:#ffffff;stroke-linejoin:round"><path style="fill:#fe80fb;fill-opacity:1;stroke:#000000;stroke-width:0;stroke-linecap:round;stroke-linejoin:round;stroke-opacity:0" d="M 124.8,0 A 124.8,124.8 0 0 1 0,124.8 124.8,124.8 0 0 1 -124.8,0 124.8,124.8 0 0 1 0,-124.8 124.8,124.8 0 0 1 124.8,0 Z" /></g></svg><svg version="1.1" y="70" x="-60" viewBox="0 0 500 500" height="500" width="500" style="overflow:visible"><g style="fill:#ffffff;fill-opacity:1;stroke:#000000;stroke-width:0;stroke-linecap:round;stroke-linejoin:round;stroke-opacity:0"><g  aria-label="4"><path  d="m 32.8,-60.8 23,-36.8 c 4.2,-8 8.2,-16.2 11.8,-24 h 0.8 c -0.4,8.6 -1.2,22 -1.2,30.6 v 30.2 z m 79.4,0 H 94.6 V -148 H 59.4 L 4.2,-58.4 v 20 h 63 V 0 h 27.4 v -38.4 h 17.6 z" /></g></g></svg></svg>