<?xml version="1.0" encoding="UTF-8"?>
<svg version="1.1" xmlns="http://www.w3.org/2000/svg" width="300" height="300">
<path d="M0 0 C1.2257373 0.00563965 2.45147461 0.0112793 3.71435547 0.01708984 C13.18325624 0.14330853 22.10086194 0.84978953 31.25 3.3125 C31.95705078 3.50054199 32.66410156 3.68858398 33.39257812 3.88232422 C64.46795546 12.48623376 91.88531403 32.94071408 108.30859375 60.77734375 C113.54228004 70.16179294 118.04135412 79.75306767 121.125 90.0625 C121.31602295 90.69833008 121.5070459 91.33416016 121.70385742 91.98925781 C130.91473909 125.05653188 125.06362941 159.78719758 108.59765625 189.33984375 C92.13465599 217.81546656 64.32322912 238.07365771 32.84106445 246.76635742 C22.11323171 249.5437287 11.63644133 250.67845303 0.5625 250.625 C-0.66774902 250.61936035 -1.89799805 250.6137207 -3.16552734 250.60791016 C-12.65197176 250.48192319 -21.58399399 249.77975088 -30.75 247.3125 C-31.45705078 247.12445801 -32.16410156 246.93641602 -32.89257812 246.74267578 C-63.96795546 238.13876624 -91.38531403 217.68428592 -107.80859375 189.84765625 C-113.04228004 180.46320706 -117.54135412 170.87193233 -120.625 160.5625 C-120.81602295 159.92666992 -121.0070459 159.29083984 -121.20385742 158.63574219 C-124.23021403 147.77105334 -125.11713797 136.80074958 -125.0625 125.5625 C-125.05686035 124.3367627 -125.0512207 123.11102539 -125.04541016 121.84814453 C-124.91919147 112.37924376 -124.21271047 103.46163806 -121.75 94.3125 C-121.56195801 93.60544922 -121.37391602 92.89839844 -121.18017578 92.16992188 C-112.57626624 61.09454454 -92.12178592 33.67718597 -64.28515625 17.25390625 C-54.90070706 12.02021996 -45.30943233 7.52114588 -35 4.4375 C-34.36416992 4.24647705 -33.72833984 4.0554541 -33.07324219 3.85864258 C-22.20855334 0.83228597 -11.23824958 -0.05463797 0 0 Z " fill="#C71E1E" transform="translate(149.75,24.6875)"/>
<path d="M0 0 C26.07 0 52.14 0 79 0 C79 8.25 79 16.5 79 25 C61.18 25 43.36 25 25 25 C24.67 30.94 24.34 36.88 24 43 C23.3671875 51.015625 23.3671875 51.015625 23 55 C23.54785156 54.7834375 24.09570312 54.566875 24.66015625 54.34375 C37.54589653 49.81802658 50.93975861 50.99627662 63.125 56.75 C72.92947823 61.9259682 79.10318374 68.13238231 83.00390625 78.7265625 C83.74081411 81.14020274 84.40220972 83.54862979 85 86 C85.17273438 86.62696777 85.34546875 87.25393555 85.5234375 87.89990234 C86.29838902 91.31492947 86.1844703 94.76584262 86.1875 98.25 C86.19974609 98.97574219 86.21199219 99.70148438 86.22460938 100.44921875 C86.26274511 114.71198204 80.07177217 127.44990059 70.41796875 137.67578125 C58.95557986 148.46883356 43.54287896 151.56553036 28.328125 151.2734375 C12.39328945 150.54912679 -3.88805129 143.53836661 -15 132 C-15 128.51577455 -14.36724479 127.74837038 -12.375 124.98828125 C-11.83359375 124.23095703 -11.2921875 123.47363281 -10.734375 122.69335938 C-10.16203125 121.90767578 -9.5896875 121.12199219 -9 120.3125 C-8.14148438 119.11657227 -8.14148438 119.11657227 -7.265625 117.89648438 C-5.84997529 115.92637187 -4.42794529 113.96120943 -3 112 C-0.12941268 113.39362624 2.25319371 114.8837454 4.75 116.875 C14.2037249 124.0661451 24.06936804 127.18697614 36 126 C43.64339805 124.28457828 48.71324757 120.53973311 53 114 C55.48174929 109.36962214 55.36701554 104.81751721 55.375 99.6875 C55.41173828 98.46256836 55.41173828 98.46256836 55.44921875 97.21289062 C55.48203728 90.34834911 53.74212416 85.24296876 49.2890625 79.9765625 C48.73992187 79.53054687 48.19078125 79.08453125 47.625 78.625 C47.08101562 78.16351563 46.53703125 77.70203125 45.9765625 77.2265625 C39.03431801 72.91852936 30.8733975 73.0473189 23 74 C19.62522981 75.34154716 16.67219479 76.87893851 13.5859375 78.78515625 C10.42835303 80.26855318 9.26344794 80.11845869 6 79 C1.99842866 77.247487 -1.01188575 75.1944309 -4 72 C-4.50830078 69.58935547 -4.50830078 69.58935547 -4.3828125 66.7421875 C-4.340354 65.59105469 -4.29789551 64.43992187 -4.25415039 63.25390625 C-4.17127266 61.83582882 -4.08636191 60.4178695 -4 59 C-3.90513981 57.2070512 -3.8106869 55.41408082 -3.71655273 53.62109375 C-3.43258265 48.45053979 -3.109345 43.28312252 -2.77319336 38.11572266 C-2.56253822 34.87558786 -2.35790535 31.63511576 -2.15429688 28.39453125 C-2.02118373 26.30206101 -1.88773169 24.2096123 -1.75390625 22.1171875 C-1.6934462 21.16480194 -1.63298615 20.21241638 -1.57069397 19.23117065 C-1.15085653 12.80479967 -0.58348402 6.41832427 0 0 Z " fill="#FEFCFC" transform="translate(111,72)"/>
</svg>
