<?xml version="1.0" encoding="UTF-8" standalone="no"?><svg xmlns:svg="http://www.w3.org/2000/svg" xmlns="http://www.w3.org/2000/svg" version="1.1" style="overflow:visible" viewBox="-150 -150 300 300" height="1200px" width="1200px"><rect fill-opacity="0" fill="rgb(0,0,0)" height="300" width="300" y="-150" x="-150" /><svg version="1.1" y="-250" x="-250" viewBox="-250 -250 500 500" height="500" width="500" style="overflow:visible"><g style="fill:#ffffff;stroke-linejoin:round"><path style="fill:#64e072;fill-opacity:1;stroke:#000000;stroke-width:0;stroke-linecap:round;stroke-linejoin:round;stroke-opacity:0" d="M 124.8,0 A 124.8,124.8 0 0 1 0,124.8 124.8,124.8 0 0 1 -124.8,0 124.8,124.8 0 0 1 0,-124.8 124.8,124.8 0 0 1 124.8,0 Z" /></g></svg><svg version="1.1" y="70" x="-60" viewBox="0 0 500 500" height="500" width="500" style="overflow:visible"><g style="fill:#ffffff;fill-opacity:1;stroke:#000000;stroke-width:0;stroke-linecap:round;stroke-linejoin:round;stroke-opacity:0"><g  aria-label="1"><path  d="m 16.4,0 h 89 V -23.8 H 77.6 V -148 H 55.8 c -9.4,5.8 -19.6,9.6 -34.4,12.4 v 18.2 h 26.8 v 93.6 H 16.4 Z" /></g></g></svg></svg>