<?xml version="1.0" encoding="UTF-8" standalone="no"?><svg xmlns:svg="http://www.w3.org/2000/svg" xmlns="http://www.w3.org/2000/svg" version="1.1" style="overflow:visible" viewBox="-150 -150 300 300" height="1200px" width="1200px"><rect fill-opacity="0" fill="rgb(0,0,0)" height="300" width="300" y="-150" x="-150" /><svg version="1.1" y="-250" x="-250" viewBox="-250 -250 500 500" height="500" width="500" style="overflow:visible"><g style="fill:#ffffff;stroke-linejoin:round"><path style="fill:#ef9878;fill-opacity:1;stroke:#000000;stroke-width:0;stroke-linecap:round;stroke-linejoin:round;stroke-opacity:0" d="M 124.8,0 A 124.8,124.8 0 0 1 0,124.8 124.8,124.8 0 0 1 -124.8,0 124.8,124.8 0 0 1 0,-124.8 124.8,124.8 0 0 1 124.8,0 Z" /></g></svg><svg version="1.1" y="70" x="-60" viewBox="0 0 500 500" height="500" width="500" style="overflow:visible"><g style="fill:#ffffff;fill-opacity:1;stroke:#000000;stroke-width:0;stroke-linecap:round;stroke-linejoin:round;stroke-opacity:0"><g  aria-label="3"><path  d="m 54.8,2.8 c 28.2,0 52,-15.8 52,-43 0,-19.4 -12.8,-31.8 -29.6,-36.4 v -1 c 15.8,-6.2 24.8,-17.8 24.8,-33.8 0,-25.4 -19.4,-39.4 -48,-39.4 -17.4,0 -31.6,7 -44.4,18.2 l 15,18 c 8.8,-8 17.4,-13 28,-13.2 12.6,0.2 19.8,7 19.8,18.6 0,13.2 -8.8,22.6 -36,22.6 v 21.2 c 32.2,0 40.8,9 40.8,23.6 0,13.2 -10.2,20.6 -25.2,20.6 -13.4,0 -24.2,-6.6 -33,-15.2 L 5.2,-17.8 C 15.6,-6 31.4,2.8 54.8,2.8 Z" /></g></g></svg></svg>