<?xml version="1.0" encoding="UTF-8"?>
<svg version="1.1" xmlns="http://www.w3.org/2000/svg" width="300" height="300">
<path d="M0 0 C1.2257373 0.00563965 2.45147461 0.0112793 3.71435547 0.01708984 C13.18325624 0.14330853 22.10086194 0.84978953 31.25 3.3125 C31.95705078 3.50054199 32.66410156 3.68858398 33.39257812 3.88232422 C64.46795546 12.48623376 91.88531403 32.94071408 108.30859375 60.77734375 C113.54228004 70.16179294 118.04135412 79.75306767 121.125 90.0625 C121.31602295 90.69833008 121.5070459 91.33416016 121.70385742 91.98925781 C130.91473909 125.05653188 125.06362941 159.78719758 108.59765625 189.33984375 C92.13465599 217.81546656 64.32322912 238.07365771 32.84106445 246.76635742 C22.11323171 249.5437287 11.63644133 250.67845303 0.5625 250.625 C-0.66774902 250.61936035 -1.89799805 250.6137207 -3.16552734 250.60791016 C-12.65197176 250.48192319 -21.58399399 249.77975088 -30.75 247.3125 C-31.45705078 247.12445801 -32.16410156 246.93641602 -32.89257812 246.74267578 C-63.96795546 238.13876624 -91.38531403 217.68428592 -107.80859375 189.84765625 C-113.04228004 180.46320706 -117.54135412 170.87193233 -120.625 160.5625 C-120.81602295 159.92666992 -121.0070459 159.29083984 -121.20385742 158.63574219 C-124.23021403 147.77105334 -125.11713797 136.80074958 -125.0625 125.5625 C-125.05686035 124.3367627 -125.0512207 123.11102539 -125.04541016 121.84814453 C-124.91919147 112.37924376 -124.21271047 103.46163806 -121.75 94.3125 C-121.56195801 93.60544922 -121.37391602 92.89839844 -121.18017578 92.16992188 C-112.57626624 61.09454454 -92.12178592 33.67718597 -64.28515625 17.25390625 C-54.90070706 12.02021996 -45.30943233 7.52114588 -35 4.4375 C-34.36416992 4.24647705 -33.72833984 4.0554541 -33.07324219 3.85864258 C-22.20855334 0.83228597 -11.23824958 -0.05463797 0 0 Z " fill="#FE80FB" transform="translate(149.75,24.6875)"/>
<path d="M0 0 C11.88 0 23.76 0 36 0 C36 28.71 36 57.42 36 87 C41.61 87 47.22 87 53 87 C53 94.59 53 102.18 53 110 C47.39 110 41.78 110 36 110 C36 122.54 36 135.08 36 148 C26.76 148 17.52 148 8 148 C8 135.46 8 122.92 8 110 C-12.79 110 -33.58 110 -55 110 C-55 85.91043174 -55 85.91043174 -47.8125 76 C-46.70200441 74.33916164 -45.59154022 72.67829843 -44.48471069 71.01501465 C-43.37701758 69.36422124 -42.24647575 67.7288342 -41.11572266 66.09375 C-38.08256732 61.65846909 -35.29235877 57.08903053 -32.5 52.5 C-31.45316668 50.80776175 -30.40496585 49.11636876 -29.35546875 47.42578125 C-26.19500234 42.32055867 -23.04605023 37.20835701 -19.91113281 32.08740234 C-18.51996539 29.83363344 -17.11187415 27.59021757 -15.68652344 25.35791016 C-12.23703466 19.91845763 -9.21273007 14.86799621 -7.40600586 8.65698242 C-6.25 6.375 -6.25 6.375 0 0 Z " fill="#FEFCFE" transform="translate(149,72)"/>
<path d="M0 0 C0.33 0 0.66 0 1 0 C0.67 19.8 0.34 39.6 0 60 C-11.22 60 -22.44 60 -34 60 C-29.9946684 52.65689207 -25.94708591 45.70117301 -21.375 38.75 C-14.12345266 27.56162065 -7.95095273 15.92028882 -2 4 C-1.62198242 3.24412598 -1.24396484 2.48825195 -0.85449219 1.70947266 C-0.57250977 1.14534668 -0.29052734 0.5812207 0 0 Z " fill="#FE81FB" transform="translate(157,99)"/>
</svg>
