<?xml version="1.0" encoding="UTF-8"?>
<svg version="1.1" xmlns="http://www.w3.org/2000/svg" width="300" height="300">
<path d="M0 0 C1.2257373 0.00563965 2.45147461 0.0112793 3.71435547 0.01708984 C13.18325624 0.14330853 22.10086194 0.84978953 31.25 3.3125 C31.95705078 3.50054199 32.66410156 3.68858398 33.39257812 3.88232422 C64.46795546 12.48623376 91.88531403 32.94071408 108.30859375 60.77734375 C113.54228004 70.16179294 118.04135412 79.75306767 121.125 90.0625 C121.31602295 90.69833008 121.5070459 91.33416016 121.70385742 91.98925781 C130.91473909 125.05653188 125.06362941 159.78719758 108.59765625 189.33984375 C92.13465599 217.81546656 64.32322912 238.07365771 32.84106445 246.76635742 C22.11323171 249.5437287 11.63644133 250.67845303 0.5625 250.625 C-0.66774902 250.61936035 -1.89799805 250.6137207 -3.16552734 250.60791016 C-12.65197176 250.48192319 -21.58399399 249.77975088 -30.75 247.3125 C-31.45705078 247.12445801 -32.16410156 246.93641602 -32.89257812 246.74267578 C-63.96795546 238.13876624 -91.38531403 217.68428592 -107.80859375 189.84765625 C-113.04228004 180.46320706 -117.54135412 170.87193233 -120.625 160.5625 C-120.81602295 159.92666992 -121.0070459 159.29083984 -121.20385742 158.63574219 C-124.23021403 147.77105334 -125.11713797 136.80074958 -125.0625 125.5625 C-125.05686035 124.3367627 -125.0512207 123.11102539 -125.04541016 121.84814453 C-124.91919147 112.37924376 -124.21271047 103.46163806 -121.75 94.3125 C-121.56195801 93.60544922 -121.37391602 92.89839844 -121.18017578 92.16992188 C-112.57626624 61.09454454 -92.12178592 33.67718597 -64.28515625 17.25390625 C-54.90070706 12.02021996 -45.30943233 7.52114588 -35 4.4375 C-34.36416992 4.24647705 -33.72833984 4.0554541 -33.07324219 3.85864258 C-22.20855334 0.83228597 -11.23824958 -0.05463797 0 0 Z " fill="#EF9878" transform="translate(149.75,24.6875)"/>
<path d="M0 0 C8.04296605 6.29449517 13.26855315 14.08088831 14.875 24.25 C15.69339196 36.39997295 13.80711576 45.78493602 5.875 55.25 C1.75217057 59.02720301 -4.32926035 64.25 -10.125 64.25 C-10.125 64.91 -10.125 65.57 -10.125 66.25 C-9.3 66.3325 -8.475 66.415 -7.625 66.5 C1.1149373 68.37284371 8.3940812 73.45988607 13.640625 80.6796875 C19.67309586 90.31407057 21.34142306 99.69791928 19.41015625 110.9609375 C16.6141176 121.45021861 10.78337039 130.0395169 1.875 136.25 C-15.56097393 146.22310571 -34.79202115 147.52604135 -54.08349609 142.83642578 C-64.61477108 139.81129752 -73.09518265 133.47683562 -81.125 126.25 C-80.72111619 120.91666257 -77.69864729 117.52897805 -74.5625 113.4375 C-74.04236328 112.74462891 -73.52222656 112.05175781 -72.98632812 111.33789062 C-71.70700846 109.63604337 -70.41703986 107.94221036 -69.125 106.25 C-65.91813338 107.80608701 -63.14019831 109.59413207 -60.25 111.6875 C-50.57157273 118.49772181 -41.04081753 121.57579838 -29.125 120.25 C-22.703458 118.68686149 -17.16572993 116.72453733 -13.125 111.25 C-10.29307497 105.72100352 -10.38457331 99.3087603 -11.125 93.25 C-12.85199855 87.91120753 -15.89562092 85.04181653 -20.75 82.375 C-30.41828347 78.12551848 -40.71306929 77.86853054 -51.125 77.25 C-51.125 69.99 -51.125 62.73 -51.125 55.25 C-48.19625 55.023125 -45.2675 54.79625 -42.25 54.5625 C-33.18244546 53.69470669 -25.31510869 52.22585281 -19.0625 45.0625 C-15.01172845 39.18234775 -15.54442067 33.2408114 -16.125 26.25 C-17.552254 22.17530076 -20.46896011 19.46578175 -24.125 17.25 C-30.46109707 14.37092886 -36.5009687 14.21588152 -43.19140625 16.125 C-50.05780802 18.79088268 -55.59950712 22.4082171 -61.125 27.25 C-65.52958964 25.64928215 -67.92227914 22.315218 -70.8125 18.8125 C-71.31072266 18.22662109 -71.80894531 17.64074219 -72.32226562 17.03710938 C-74.47284554 14.46633475 -76.05590515 12.45728456 -77.125 9.25 C-55.59016473 -11.25936693 -25.76432013 -14.42801927 0 0 Z " fill="#FEFDFD" transform="translate(177.125,77.75)"/>
</svg>
